# xmcd
#
# Track frame offsets:
#	150
#	11307
#	24530
#	38820
#	50137
#	62652
#	79642
#	90770
#	102852
#	116410
#	128375
#	140102
#	153930
#	166012
#	179990
#	193417
#
# Disc length: 2784 seconds
#
# Revision: 1
# Processed by: cddbd v1.5.2PL0 Copyright (c) Steve Scherf et al.
# Submitted via: EasyCDDAExtractor 11.1.0.1
#
DISCID=c90ade10
DTITLE=Conway Twitty - It's only make belive - the very best of
DYEAR=1900
DGENRE=Country
TTITLE0=it's only make believe
TTITLE1=Danny boy
TTITLE2=You've never been this far before
TTITLE3=Hello darlin'
TTITLE4=This time I've hurt her more than she loves me
TTITLE5=Don't cry Joni
TTITLE6=As soon as I hang up the phone
TTITLE7=She needs someone to hold her (when she cries)
TTITLE8=The games that daddies play
TTITLE9=(lLaying here with) Linda on my mind
TTITLE10=To see an angel cry
TTITLE11=Baby's gone
TTITLE12=I can't see me without you
TTITLE13=Fifteen years ago
TTITLE14=After all the good is gone
TTITLE15=Touch the hand
EXTD=
EXTT0=
EXTT1=
EXTT2=
EXTT3=
EXTT4=
EXTT5=
EXTT6=
EXTT7=
EXTT8=
EXTT9=
EXTT10=
EXTT11=
EXTT12=
EXTT13=
EXTT14=
EXTT15=
PLAYORDER=
